<!-- <svg xmlns="http://www.w3.org/2000/svg" viewBox="0 0 522.74 58.13"><defs><style>.a{fill:#fff;}.b{fill:#bade00;}</style></defs><title>Asset 1</title><path class="a" d="M291.27,8.14h-9.42V.48h27V8.14h-9.42V57.33h-8.14Z"/><path class="a" d="M309.63,13.89a14.53,14.53,0,0,1,1.2-6.07A12.65,12.65,0,0,1,314,3.47a13.6,13.6,0,0,1,4.39-2.6,14.17,14.17,0,0,1,9.82,0,13.63,13.63,0,0,1,4.39,2.6,12.67,12.67,0,0,1,3.15,4.35,14.53,14.53,0,0,1,1.2,6.07v30a14.45,14.45,0,0,1-1.2,6.11,12.76,12.76,0,0,1-3.15,4.31,13.58,13.58,0,0,1-4.39,2.59,14.17,14.17,0,0,1-9.82,0A13.56,13.56,0,0,1,314,54.34,12.74,12.74,0,0,1,310.83,50a14.45,14.45,0,0,1-1.2-6.11Zm8.14,30a5.41,5.41,0,0,0,1.64,4.35,6.06,6.06,0,0,0,7.75,0,5.41,5.41,0,0,0,1.64-4.35v-30a5.42,5.42,0,0,0-1.64-4.35,6.07,6.07,0,0,0-7.75,0,5.41,5.41,0,0,0-1.64,4.35Z"/><path class="a" d="M342.13,13.89a14.53,14.53,0,0,1,1.2-6.07,12.65,12.65,0,0,1,3.15-4.35,13.6,13.6,0,0,1,4.39-2.6,14.17,14.17,0,0,1,9.82,0,13.63,13.63,0,0,1,4.39,2.6,12.67,12.67,0,0,1,3.15,4.35,14.53,14.53,0,0,1,1.2,6.07v30a14.45,14.45,0,0,1-1.2,6.11,12.76,12.76,0,0,1-3.15,4.31,13.58,13.58,0,0,1-4.39,2.59,14.17,14.17,0,0,1-9.82,0,13.56,13.56,0,0,1-4.39-2.59A12.74,12.74,0,0,1,343.33,50a14.45,14.45,0,0,1-1.2-6.11Zm8.14,30a5.41,5.41,0,0,0,1.64,4.35,6.06,6.06,0,0,0,7.75,0,5.41,5.41,0,0,0,1.64-4.35v-30a5.42,5.42,0,0,0-1.64-4.35,6.07,6.07,0,0,0-7.75,0,5.41,5.41,0,0,0-1.64,4.35Z"/><path class="a" d="M375.11.48h8.14V49.19h16.13v8.14H375.11Z"/><path class="a" d="M409.44.48h8.14V49.19h16.13v8.14H409.44Z"/><path class="a" d="M437.47.48h24.27V8.14H445.61V24.83h14.05V32.5H445.61V49.19h16.13v8.14H437.47Z"/><path class="a" d="M491.84,16.85H483.7V15a8.7,8.7,0,0,0-1.32-4.83,4.87,4.87,0,0,0-4.43-2,5.35,5.35,0,0,0-2.75.64,4.73,4.73,0,0,0-1.68,1.64,6.85,6.85,0,0,0-.84,2.32,15.39,15.39,0,0,0-.24,2.75,28.28,28.28,0,0,0,.12,2.83,5,5,0,0,0,.6,2,4.57,4.57,0,0,0,1.4,1.48,12.71,12.71,0,0,0,2.52,1.28l6.23,2.48A15.48,15.48,0,0,1,487.69,28a9.91,9.91,0,0,1,2.6,3.27,13.9,13.9,0,0,1,1.24,4.31,43.17,43.17,0,0,1,.32,5.55,29.26,29.26,0,0,1-.72,6.67,14.06,14.06,0,0,1-2.36,5.27,11.32,11.32,0,0,1-4.35,3.47,15.51,15.51,0,0,1-6.63,1.28,14.51,14.51,0,0,1-5.51-1A13.12,13.12,0,0,1,465,49.66a13.26,13.26,0,0,1-1.08-5.35v-3H472v2.55a6.65,6.65,0,0,0,1.32,4q1.32,1.8,4.43,1.8a7.15,7.15,0,0,0,3.23-.6,4.12,4.12,0,0,0,1.76-1.68,6.9,6.9,0,0,0,.76-2.67q.16-1.6.16-3.51a34.56,34.56,0,0,0-.16-3.67,5.84,5.84,0,0,0-.68-2.32,4.15,4.15,0,0,0-1.44-1.44,19.27,19.27,0,0,0-2.44-1.2l-5.83-2.4q-5.27-2.16-7.07-5.71a19.64,19.64,0,0,1-1.8-8.9,20.63,20.63,0,0,1,.88-6.07,14.14,14.14,0,0,1,2.6-5,12.38,12.38,0,0,1,4.35-3.31A14.32,14.32,0,0,1,478.27,0a13.51,13.51,0,0,1,5.55,1.12,13.8,13.8,0,0,1,4.31,3,13.14,13.14,0,0,1,2.75,4.11,11.93,11.93,0,0,1,1,4.67Z"/><path class="a" d="M522.74,16.85H514.6V15a8.7,8.7,0,0,0-1.32-4.83,4.87,4.87,0,0,0-4.43-2,5.35,5.35,0,0,0-2.75.64,4.73,4.73,0,0,0-1.68,1.64,6.85,6.85,0,0,0-.84,2.32,15.39,15.39,0,0,0-.24,2.75,28.28,28.28,0,0,0,.12,2.83,5,5,0,0,0,.6,2,4.57,4.57,0,0,0,1.4,1.48A12.71,12.71,0,0,0,508,23.08l6.23,2.48A15.48,15.48,0,0,1,518.59,28a9.91,9.91,0,0,1,2.6,3.27,13.9,13.9,0,0,1,1.24,4.31,43.17,43.17,0,0,1,.32,5.55,29.26,29.26,0,0,1-.72,6.67,14.06,14.06,0,0,1-2.36,5.27,11.32,11.32,0,0,1-4.35,3.47,15.51,15.51,0,0,1-6.63,1.28,14.51,14.51,0,0,1-5.51-1,13.12,13.12,0,0,1-7.31-7.11,13.26,13.26,0,0,1-1.08-5.35v-3h8.14v2.55a6.65,6.65,0,0,0,1.32,4q1.32,1.8,4.43,1.8a7.15,7.15,0,0,0,3.23-.6,4.12,4.12,0,0,0,1.76-1.68,6.9,6.9,0,0,0,.76-2.67q.16-1.6.16-3.51a34.56,34.56,0,0,0-.16-3.67,5.84,5.84,0,0,0-.68-2.32,4.15,4.15,0,0,0-1.44-1.44,19.27,19.27,0,0,0-2.44-1.2l-5.83-2.4Q498.79,28,497,24.47a19.64,19.64,0,0,1-1.8-8.9,20.63,20.63,0,0,1,.88-6.07,14.14,14.14,0,0,1,2.6-5A12.38,12.38,0,0,1,503,1.24,14.32,14.32,0,0,1,509.17,0a13.51,13.51,0,0,1,5.55,1.12,13.8,13.8,0,0,1,4.31,3,13.14,13.14,0,0,1,2.75,4.11,11.93,11.93,0,0,1,1,4.67Z"/><path class="a" d="M388.19,27.81h15.65v5.3H388.19Z"/><path class="a" d="M72.73.8h8.14v26H81L92.93.8h8.14L90,23.55l13.17,34.09H94.53L85.27,32.42l-4.39,8.22v17H72.73Z"/><path class="a" d="M105.47.8h8.14V57.65h-8.14Z"/><path class="a" d="M119.6.8h7.83l12.3,34.25h.16V.8H148V57.65h-7.67L127.9,23.47h-.16V57.65H119.6Z"/><path class="a" d="M153.37,14.21a14.53,14.53,0,0,1,1.2-6.07,12.65,12.65,0,0,1,3.15-4.35,13.6,13.6,0,0,1,4.39-2.6,14.17,14.17,0,0,1,9.82,0,13.63,13.63,0,0,1,4.39,2.6,12.67,12.67,0,0,1,3.15,4.35,14.53,14.53,0,0,1,1.2,6.07v2.87h-8.14V14.21a5.42,5.42,0,0,0-1.64-4.35,6.07,6.07,0,0,0-7.75,0,5.41,5.41,0,0,0-1.64,4.35v30a5.41,5.41,0,0,0,1.64,4.35,6.06,6.06,0,0,0,7.75,0,5.41,5.41,0,0,0,1.64-4.35V33.54h-6.47V26.35h14.61V44.23a14.45,14.45,0,0,1-1.2,6.11,12.76,12.76,0,0,1-3.15,4.31,13.58,13.58,0,0,1-4.39,2.59,14.17,14.17,0,0,1-9.82,0,13.56,13.56,0,0,1-4.39-2.59,12.74,12.74,0,0,1-3.15-4.31,14.45,14.45,0,0,1-1.2-6.11Z"/><path class="a" d="M186.35.8h12.22a18.18,18.18,0,0,1,5.91.88,11.36,11.36,0,0,1,4.63,3.11A12.19,12.19,0,0,1,212,10a32.77,32.77,0,0,1,.8,8.1,40.5,40.5,0,0,1-.44,6.43,13.53,13.53,0,0,1-1.88,5A11.88,11.88,0,0,1,206,33.89a15,15,0,0,1-7.35,1.56h-4.15v22.2h-8.14Zm8.14,27h3.91a8.33,8.33,0,0,0,3.83-.72,4.58,4.58,0,0,0,2-2,7.62,7.62,0,0,0,.76-3q.12-1.75.12-3.91,0-2-.12-3.79a8.93,8.93,0,0,0-.72-3.11,4.58,4.58,0,0,0-1.88-2.08,7.27,7.27,0,0,0-3.67-.76h-4.23Z"/><path class="a" d="M217.57.8h8.14V57.65h-8.14Z"/><path class="a" d="M231.7.8h7.83l12.3,34.25H252V.8h8.14V57.65h-7.67L240,23.47h-.16V57.65H231.7Z"/><polygon class="b" points="0 0.77 0 57.62 15.51 57.62 15.51 16.28 41.34 16.28 41.34 57.62 56.85 57.62 56.85 0.77 0 0.77"/><rect class="b" x="20.67" y="21.44" width="15.51" height="36.18"/></svg> -->
<svg xmlns="http://www.w3.org/2000/svg" viewBox="0 0 522.74 58.13">
  <defs><style>.a{fill:#fff;}.b{fill:#bade00;}</style></defs>
    <title>Asset 1</title>
  <path class="a" d="M291.27,8.14h-9.42V.48h27V8.14h-9.42V57.33h-8.14Z"/>
  <path class="a" d="M309.63,13.89a14.53,14.53,0,0,1,1.2-6.07A12.65,12.65,0,0,1,314,3.47a13.6,13.6,0,0,1,4.39-2.6,14.17,14.17,0,0,1,9.82,0,13.63,13.63,0,0,1,4.39,2.6,12.67,12.67,0,0,1,3.15,4.35,14.53,14.53,0,0,1,1.2,6.07v30a14.45,14.45,0,0,1-1.2,6.11,12.76,12.76,0,0,1-3.15,4.31,13.58,13.58,0,0,1-4.39,2.59,14.17,14.17,0,0,1-9.82,0A13.56,13.56,0,0,1,314,54.34,12.74,12.74,0,0,1,310.83,50a14.45,14.45,0,0,1-1.2-6.11Zm8.14,30a5.41,5.41,0,0,0,1.64,4.35,6.06,6.06,0,0,0,7.75,0,5.41,5.41,0,0,0,1.64-4.35v-30a5.42,5.42,0,0,0-1.64-4.35,6.07,6.07,0,0,0-7.75,0,5.41,5.41,0,0,0-1.64,4.35Z"/>
  <path class="a" d="M342.13,13.89a14.53,14.53,0,0,1,1.2-6.07,12.65,12.65,0,0,1,3.15-4.35,13.6,13.6,0,0,1,4.39-2.6,14.17,14.17,0,0,1,9.82,0,13.63,13.63,0,0,1,4.39,2.6,12.67,12.67,0,0,1,3.15,4.35,14.53,14.53,0,0,1,1.2,6.07v30a14.45,14.45,0,0,1-1.2,6.11,12.76,12.76,0,0,1-3.15,4.31,13.58,13.58,0,0,1-4.39,2.59,14.17,14.17,0,0,1-9.82,0,13.56,13.56,0,0,1-4.39-2.59A12.74,12.74,0,0,1,343.33,50a14.45,14.45,0,0,1-1.2-6.11Zm8.14,30a5.41,5.41,0,0,0,1.64,4.35,6.06,6.06,0,0,0,7.75,0,5.41,5.41,0,0,0,1.64-4.35v-30a5.42,5.42,0,0,0-1.64-4.35,6.07,6.07,0,0,0-7.75,0,5.41,5.41,0,0,0-1.64,4.35Z"/>
  <path class="a" d="M375.11.48h8.14V49.19h16.13v8.14H375.11Z"/>
  <path class="a" d="M409.44.48h8.14V49.19h16.13v8.14H409.44Z"/>
  <path class="a" d="M437.47.48h24.27V8.14H445.61V24.83h14.05V32.5H445.61V49.19h16.13v8.14H437.47Z"/>
  <path class="a" d="M491.84,16.85H483.7V15a8.7,8.7,0,0,0-1.32-4.83,4.87,4.87,0,0,0-4.43-2,5.35,5.35,0,0,0-2.75.64,4.73,4.73,0,0,0-1.68,1.64,6.85,6.85,0,0,0-.84,2.32,15.39,15.39,0,0,0-.24,2.75,28.28,28.28,0,0,0,.12,2.83,5,5,0,0,0,.6,2,4.57,4.57,0,0,0,1.4,1.48,12.71,12.71,0,0,0,2.52,1.28l6.23,2.48A15.48,15.48,0,0,1,487.69,28a9.91,9.91,0,0,1,2.6,3.27,13.9,13.9,0,0,1,1.24,4.31,43.17,43.17,0,0,1,.32,5.55,29.26,29.26,0,0,1-.72,6.67,14.06,14.06,0,0,1-2.36,5.27,11.32,11.32,0,0,1-4.35,3.47,15.51,15.51,0,0,1-6.63,1.28,14.51,14.51,0,0,1-5.51-1A13.12,13.12,0,0,1,465,49.66a13.26,13.26,0,0,1-1.08-5.35v-3H472v2.55a6.65,6.65,0,0,0,1.32,4q1.32,1.8,4.43,1.8a7.15,7.15,0,0,0,3.23-.6,4.12,4.12,0,0,0,1.76-1.68,6.9,6.9,0,0,0,.76-2.67q.16-1.6.16-3.51a34.56,34.56,0,0,0-.16-3.67,5.84,5.84,0,0,0-.68-2.32,4.15,4.15,0,0,0-1.44-1.44,19.27,19.27,0,0,0-2.44-1.2l-5.83-2.4q-5.27-2.16-7.07-5.71a19.64,19.64,0,0,1-1.8-8.9,20.63,20.63,0,0,1,.88-6.07,14.14,14.14,0,0,1,2.6-5,12.38,12.38,0,0,1,4.35-3.31A14.32,14.32,0,0,1,478.27,0a13.51,13.51,0,0,1,5.55,1.12,13.8,13.8,0,0,1,4.31,3,13.14,13.14,0,0,1,2.75,4.11,11.93,11.93,0,0,1,1,4.67Z"/>
  <path class="a" d="M522.74,16.85H514.6V15a8.7,8.7,0,0,0-1.32-4.83,4.87,4.87,0,0,0-4.43-2,5.35,5.35,0,0,0-2.75.64,4.73,4.73,0,0,0-1.68,1.64,6.85,6.85,0,0,0-.84,2.32,15.39,15.39,0,0,0-.24,2.75,28.28,28.28,0,0,0,.12,2.83,5,5,0,0,0,.6,2,4.57,4.57,0,0,0,1.4,1.48A12.71,12.71,0,0,0,508,23.08l6.23,2.48A15.48,15.48,0,0,1,518.59,28a9.91,9.91,0,0,1,2.6,3.27,13.9,13.9,0,0,1,1.24,4.31,43.17,43.17,0,0,1,.32,5.55,29.26,29.26,0,0,1-.72,6.67,14.06,14.06,0,0,1-2.36,5.27,11.32,11.32,0,0,1-4.35,3.47,15.51,15.51,0,0,1-6.63,1.28,14.51,14.51,0,0,1-5.51-1,13.12,13.12,0,0,1-7.31-7.11,13.26,13.26,0,0,1-1.08-5.35v-3h8.14v2.55a6.65,6.65,0,0,0,1.32,4q1.32,1.8,4.43,1.8a7.15,7.15,0,0,0,3.23-.6,4.12,4.12,0,0,0,1.76-1.68,6.9,6.9,0,0,0,.76-2.67q.16-1.6.16-3.51a34.56,34.56,0,0,0-.16-3.67,5.84,5.84,0,0,0-.68-2.32,4.15,4.15,0,0,0-1.44-1.44,19.27,19.27,0,0,0-2.44-1.2l-5.83-2.4Q498.79,28,497,24.47a19.64,19.64,0,0,1-1.8-8.9,20.63,20.63,0,0,1,.88-6.07,14.14,14.14,0,0,1,2.6-5A12.38,12.38,0,0,1,503,1.24,14.32,14.32,0,0,1,509.17,0a13.51,13.51,0,0,1,5.55,1.12,13.8,13.8,0,0,1,4.31,3,13.14,13.14,0,0,1,2.75,4.11,11.93,11.93,0,0,1,1,4.67Z"/>
  <path class="a" d="M388.19,27.81h15.65v5.3H388.19Z"/>
  <path class="a" d="M72.73.8h8.14v26H81L92.93.8h8.14L90,23.55l13.17,34.09H94.53L85.27,32.42l-4.39,8.22v17H72.73Z"/>
  <path class="a" d="M105.47.8h8.14V57.65h-8.14Z"/>
  <path class="a" d="M119.6.8h7.83l12.3,34.25h.16V.8H148V57.65h-7.67L127.9,23.47h-.16V57.65H119.6Z"/>
  <path class="a" d="M153.37,14.21a14.53,14.53,0,0,1,1.2-6.07,12.65,12.65,0,0,1,3.15-4.35,13.6,13.6,0,0,1,4.39-2.6,14.17,14.17,0,0,1,9.82,0,13.63,13.63,0,0,1,4.39,2.6,12.67,12.67,0,0,1,3.15,4.35,14.53,14.53,0,0,1,1.2,6.07v2.87h-8.14V14.21a5.42,5.42,0,0,0-1.64-4.35,6.07,6.07,0,0,0-7.75,0,5.41,5.41,0,0,0-1.64,4.35v30a5.41,5.41,0,0,0,1.64,4.35,6.06,6.06,0,0,0,7.75,0,5.41,5.41,0,0,0,1.64-4.35V33.54h-6.47V26.35h14.61V44.23a14.45,14.45,0,0,1-1.2,6.11,12.76,12.76,0,0,1-3.15,4.31,13.58,13.58,0,0,1-4.39,2.59,14.17,14.17,0,0,1-9.82,0,13.56,13.56,0,0,1-4.39-2.59,12.74,12.74,0,0,1-3.15-4.31,14.45,14.45,0,0,1-1.2-6.11Z"/>
  <path class="a" d="M186.35.8h12.22a18.18,18.18,0,0,1,5.91.88,11.36,11.36,0,0,1,4.63,3.11A12.19,12.19,0,0,1,212,10a32.77,32.77,0,0,1,.8,8.1,40.5,40.5,0,0,1-.44,6.43,13.53,13.53,0,0,1-1.88,5A11.88,11.88,0,0,1,206,33.89a15,15,0,0,1-7.35,1.56h-4.15v22.2h-8.14Zm8.14,27h3.91a8.33,8.33,0,0,0,3.83-.72,4.58,4.58,0,0,0,2-2,7.62,7.62,0,0,0,.76-3q.12-1.75.12-3.91,0-2-.12-3.79a8.93,8.93,0,0,0-.72-3.11,4.58,4.58,0,0,0-1.88-2.08,7.27,7.27,0,0,0-3.67-.76h-4.23Z"/>
  <path class="a" d="M217.57.8h8.14V57.65h-8.14Z"/>
  <path class="a" d="M231.7.8h7.83l12.3,34.25H252V.8h8.14V57.65h-7.67L240,23.47h-.16V57.65H231.7Z"/>
  <polygon class="b" points="0 0.77 0 57.62 15.51 57.62 15.51 16.28 41.34 16.28 41.34 57.62 56.85 57.62 56.85 0.77 0 0.77"/>
  <rect class="b" x="20.67" y="21.44" width="15.51" height="36.18"/>
</svg>
